<svg width="181" height="181" viewBox="0 0 181 181" fill="none" xmlns="http://www.w3.org/2000/svg">
<path d="M90.5 180.083C41.0245 180.083 0.916672 139.975 0.916672 90.5C0.916672 41.0244 41.0245 0.916626 90.5 0.916626C139.975 0.916626 180.083 41.0244 180.083 90.5C180.083 139.975 139.975 180.083 90.5 180.083ZM90.5 77.8311L68.6975 56.0285C66.7449 54.0759 63.5791 54.0759 61.6264 56.0285L56.0286 61.6264C54.0759 63.579 54.0759 66.7449 56.0286 68.6975L77.8311 90.5L56.0286 112.302C54.076 114.255 54.076 117.421 56.0286 119.373L61.6265 124.971C63.5791 126.924 66.7449 126.924 68.6975 124.971L90.5 103.169L112.302 124.971C114.255 126.924 117.421 126.924 119.373 124.971L124.971 119.373C126.924 117.421 126.924 114.255 124.971 112.302L103.169 90.5L124.971 68.6975C126.924 66.7448 126.924 63.579 124.971 61.6264L119.373 56.0286C117.421 54.0759 114.255 54.0759 112.302 56.0286L90.5 77.8311Z" fill="#FF0000"/>
</svg>
