<svg width="24" height="26" viewBox="0 0 24 26" fill="none" xmlns="http://www.w3.org/2000/svg">
<g clip-path="url(#clip0_345_13)">
<path d="M12 0.8125C11.6411 0.8125 11.4214 0.670312 11.1696 0.502734C10.8161 0.274219 10.3929 0 9.42857 0C7.79464 0 6.64286 2.21914 5.89286 4.53984C3.35893 4.98164 1.71429 5.69766 1.71429 6.5C1.71429 7.22617 3.05357 7.87617 5.175 8.32305C5.15357 8.52617 5.14286 8.7293 5.14286 8.9375C5.14286 9.80078 5.31964 10.6234 5.64107 11.375H2.43214C2.03571 11.375 1.71429 11.6797 1.71429 12.0555C1.71429 12.1418 1.73036 12.2281 1.76786 12.3094L3.84643 18.2457C1.51071 19.8961 0 21.5211 0 24.4918C0 25.3246 0.7125 26 1.59107 26H22.4089C23.2875 26 24 25.3246 24 24.4918C24 21.5211 22.4893 19.9012 20.1589 18.2457L22.2321 12.3094C22.2643 12.2281 22.2857 12.1418 22.2857 12.0555C22.2857 11.6797 21.9643 11.375 21.5679 11.375H18.3589C18.6804 10.6234 18.8571 9.80078 18.8571 8.9375C18.8571 8.7293 18.8464 8.52617 18.825 8.32305C20.9464 7.87617 22.2857 7.22617 22.2857 6.5C22.2857 5.69766 20.6411 4.98164 18.1071 4.53984C17.3571 2.21914 16.2054 0 14.5714 0C13.6071 0 13.1839 0.274219 12.8304 0.502734C12.5732 0.670312 12.3589 0.8125 12 0.8125ZM15 11.375H14.3357C13.4518 11.375 12.6696 10.8367 12.3911 10.0445C12.2679 9.68906 11.7375 9.68906 11.6143 10.0445C11.3357 10.8367 10.5482 11.375 9.66964 11.375H9C7.81607 11.375 6.85714 10.466 6.85714 9.34375V8.6125C8.36786 8.8207 10.125 8.9375 12 8.9375C13.875 8.9375 15.6321 8.8207 17.1429 8.6125V9.34375C17.1429 10.466 16.1839 11.375 15 11.375ZM10.2857 16.25L11.1429 17.875L8.35714 24.375L5.78571 14.625L10.2857 16.25ZM18.2143 14.625L15.6429 24.375L12.8571 17.875L13.7143 16.25L18.2143 14.625Z" fill="white"/>
</g>
<defs>
<clipPath id="clip0_345_13">
<rect width="24" height="26" fill="white"/>
</clipPath>
</defs>
</svg>
